<svg width="160" height="160" viewBox="0 0 160 160" fill="none" xmlns="http://www.w3.org/2000/svg" role="img" aria-label="XTPixel avatar placeholder">
  <rect width="160" height="160" rx="48" fill="url(#sky)"/>
  <circle cx="52" cy="46" r="18" fill="#FFF5B8" opacity="0.9"/>
  <path d="M38 104C54 76 76 66 108 78C120 82.5 130 91 136 104C113 122 61 124 38 104Z" fill="#DDF8E8" opacity="0.88"/>
  <path d="M32 116C55 101 101 98 130 113C108 134 56 136 32 116Z" fill="#8CDBC4" opacity="0.82"/>
  <path d="M80 38L86.6 59.4L108 66L86.6 72.6L80 94L73.4 72.6L52 66L73.4 59.4L80 38Z" fill="white"/>
  <path d="M111 39L114.4 50.6L126 54L114.4 57.4L111 69L107.6 57.4L96 54L107.6 50.6L111 39Z" fill="#F7D9FF"/>
  <defs>
    <linearGradient id="sky" x1="22" y1="20" x2="138" y2="144" gradientUnits="userSpaceOnUse">
      <stop stop-color="#89E9D1"/>
      <stop offset="0.52" stop-color="#C7E6FF"/>
      <stop offset="1" stop-color="#E8C8FF"/>
    </linearGradient>
  </defs>
</svg>
